<svg xmlns="http://www.w3.org/2000/svg" viewBox="0 0 1280 850" role="img" aria-labelledby="title desc">
  <title id="title">Hasala team project preview</title>
  <desc id="desc">Abstract team project preview, not a product screenshot.</desc>
  <rect width="1280" height="850" fill="#111514"/>
  <rect x="92" y="78" width="1096" height="694" rx="8" fill="#d4cfc4"/>
  <rect x="150" y="140" width="980" height="150" rx="6" fill="#101412"/>
  <rect x="150" y="344" width="290" height="324" rx="6" fill="#f6f0e2"/>
  <rect x="494" y="344" width="290" height="324" rx="6" fill="#f6f0e2"/>
  <rect x="838" y="344" width="290" height="324" rx="6" fill="#f6f0e2"/>
  <g fill="#101412">
    <rect x="190" y="392" width="160" height="22"/>
    <rect x="534" y="392" width="160" height="22"/>
    <rect x="878" y="392" width="160" height="22"/>
    <rect x="190" y="458" width="210" height="12"/>
    <rect x="534" y="458" width="210" height="12"/>
    <rect x="878" y="458" width="210" height="12"/>
    <rect x="190" y="498" width="170" height="12"/>
    <rect x="534" y="498" width="170" height="12"/>
    <rect x="878" y="498" width="170" height="12"/>
  </g>
  <circle cx="1010" cy="214" r="52" fill="#00a77d"/>
  <text x="188" y="232" fill="#d4cfc4" font-family="Inter, Arial, sans-serif" font-size="48" font-weight="800">Hasala / team project</text>
  <text x="150" y="724" fill="#101412" font-family="Inter, Arial, sans-serif" font-size="30" font-weight="700">Course collaboration, labeled carefully</text>
</svg>
