<svg xmlns="http://www.w3.org/2000/svg" viewBox="0 0 1280 850" role="img" aria-labelledby="title desc">
  <title id="title">Outlook Calendar Automation preview</title>
  <desc id="desc">Abstract email to calendar automation interface, not a product screenshot.</desc>
  <rect width="1280" height="850" fill="#151615"/>
  <rect x="70" y="70" width="1140" height="710" rx="8" fill="#d4cfc4"/>
  <rect x="108" y="118" width="380" height="614" rx="6" fill="#101412"/>
  <rect x="532" y="118" width="640" height="614" rx="6" fill="#f4efe2"/>
  <g fill="#d4cfc4" opacity=".88">
    <rect x="142" y="164" width="260" height="18"/>
    <rect x="142" y="222" width="300" height="14"/>
    <rect x="142" y="258" width="250" height="14"/>
    <rect x="142" y="294" width="318" height="14"/>
  </g>
  <g stroke="#00a77d" stroke-width="5" fill="none">
    <path d="M458 460 C 560 410, 590 280, 686 300"/>
    <path d="M458 520 C 608 520, 608 640, 730 630"/>
  </g>
  <g fill="#101412">
    <rect x="576" y="166" width="216" height="26"/>
    <rect x="576" y="224" width="536" height="2"/>
  </g>
  <g fill="#ffffff" stroke="#d8cdbd" stroke-width="2">
    <rect x="578" y="268" width="132" height="102" rx="6"/>
    <rect x="730" y="268" width="132" height="102" rx="6"/>
    <rect x="882" y="268" width="132" height="102" rx="6"/>
    <rect x="1034" y="268" width="78" height="102" rx="6"/>
    <rect x="578" y="398" width="132" height="102" rx="6"/>
    <rect x="730" y="398" width="132" height="102" rx="6"/>
    <rect x="882" y="398" width="132" height="102" rx="6"/>
    <rect x="1034" y="398" width="78" height="102" rx="6"/>
    <rect x="578" y="528" width="132" height="102" rx="6"/>
    <rect x="730" y="528" width="132" height="102" rx="6"/>
    <rect x="882" y="528" width="132" height="102" rx="6"/>
    <rect x="1034" y="528" width="78" height="102" rx="6"/>
  </g>
  <rect x="602" y="416" width="84" height="26" rx="4" fill="#00a77d"/>
  <rect x="754" y="546" width="84" height="26" rx="4" fill="#b76e45"/>
  <rect x="906" y="286" width="84" height="26" rx="4" fill="#2f6f8f"/>
  <text x="142" y="650" fill="#d4cfc4" font-family="Inter, Arial, sans-serif" font-size="42" font-weight="700">Outlook -> Calendar</text>
</svg>
